<svg width="362" height="100" viewBox="0 0 362 100" fill="none" xmlns="http://www.w3.org/2000/svg">
<mask id="mask0_874_4258" style="mask-type:luminance" maskUnits="userSpaceOnUse" x="25" y="20" width="312" height="60">
<path d="M337 20H25V79.7885H337V20Z" fill="white"/>
</mask>
<g mask="url(#mask0_874_4258)">
<path fill-rule="evenodd" clip-rule="evenodd" d="M84.9803 49.8242C84.9803 33.3529 71.6193 20 55.1385 20C38.6577 20 25.2969 33.3529 25.2969 49.8242C25.2969 66.2963 38.6577 79.6484 55.1385 79.6484C71.6193 79.6484 84.9803 66.2963 84.9803 49.8242ZM49.707 33.2552C49.4724 33.7154 49.4724 34.3178 49.4724 35.5226V42.351C49.4724 42.652 49.4724 42.8025 49.5104 42.9416C49.5441 43.0648 49.5995 43.1811 49.674 43.285C49.758 43.4022 49.8749 43.497 50.1086 43.6868L51.8369 45.09C52.1186 45.3187 52.2595 45.433 52.3106 45.5707C52.3555 45.6914 52.3555 45.8243 52.3106 45.945C52.2595 46.0827 52.1186 46.197 51.8369 46.4257L50.1086 47.8289C49.8749 48.0187 49.758 48.1135 49.674 48.2307C49.5995 48.3346 49.5441 48.4509 49.5104 48.5741C49.4724 48.7133 49.4724 48.8637 49.4724 49.1647V64.1257C49.4724 65.3304 49.4724 65.9327 49.707 66.3928C49.9134 66.7979 50.2427 67.1268 50.6477 67.3329C51.1081 67.5676 51.7109 67.5676 52.9164 67.5676H57.3607C58.5661 67.5676 59.1689 67.5676 59.6293 67.3329C60.0344 67.1268 60.3636 66.7979 60.5701 66.3928C60.8048 65.9327 60.8048 65.3304 60.8048 64.1257V57.2971C60.8048 56.9961 60.8048 56.8456 60.7666 56.7067C60.733 56.5834 60.6776 56.4669 60.6031 56.3631C60.5189 56.2459 60.4021 56.1511 60.1684 55.9614L58.4401 54.5581C58.1585 54.3295 58.0176 54.2151 57.9664 54.0774C57.9216 53.9567 57.9216 53.8239 57.9664 53.7031C58.0176 53.5655 58.1584 53.4511 58.4401 53.2224L60.1684 51.8193C60.4021 51.6295 60.5189 51.5346 60.6031 51.4174C60.6776 51.3136 60.733 51.1973 60.7666 51.074C60.8048 50.9349 60.8048 50.7844 60.8048 50.4835V35.5226C60.8048 34.3178 60.8048 33.7154 60.5701 33.2552C60.3636 32.8504 60.0344 32.5213 59.6293 32.3151C59.1689 32.0806 58.5661 32.0806 57.3607 32.0806H52.9164C51.7109 32.0806 51.1081 32.0806 50.6477 32.3151C50.2427 32.5213 49.9134 32.8504 49.707 33.2552Z" fill="#1A285F"/>
<path d="M108.938 67.6657C109.234 67.6657 109.473 67.4262 109.473 67.1307V32.0975C109.473 31.802 109.234 31.5625 108.938 31.5625H103.772C103.581 31.5625 103.405 31.666 103.3 31.8259C102.116 33.6259 99.9134 34.5325 96.8951 34.6269C96.5996 34.6361 96.3594 34.8746 96.3594 35.1702V40.41C96.3594 40.7054 96.5989 40.945 96.8947 40.945H101.07C101.365 40.945 101.605 41.1845 101.605 41.48V67.1307C101.605 67.4262 101.844 67.6657 102.14 67.6657H108.938Z" fill="#1A285F"/>
<path d="M129.559 38.8046C132.346 38.8046 134.586 40.2861 134.586 44.0171C134.586 47.6384 132.346 49.2296 129.559 49.2296H123.493V38.8046H129.559ZM129.559 55.9783C137.755 55.9783 142.509 50.9854 142.509 43.7976C142.509 36.994 137.755 32.001 129.559 32.001H116.215C115.919 32.001 115.68 32.2405 115.68 32.536V67.1302C115.68 67.4257 115.919 67.6652 116.215 67.6652H122.958C123.254 67.6652 123.493 67.4257 123.493 67.1302V56.5133C123.493 56.2178 123.733 55.9783 124.029 55.9783H129.559Z" fill="#1A285F"/>
<path d="M154.631 62.6181C152.336 62.6181 150.916 61.5756 150.916 59.7101C150.916 58.0639 151.899 56.9667 154.249 56.9667H160.642V57.5151C160.642 60.6976 157.91 62.6181 154.631 62.6181ZM161.243 67.1308C161.243 67.4263 161.483 67.6658 161.779 67.6658H167.647C167.943 67.6658 168.183 67.4263 168.183 67.1308V51.6443C168.183 44.1823 163.975 39.8477 156.38 39.8477C150.741 39.8477 146.423 42.8592 144.653 47.7007C144.547 47.9915 144.723 48.3051 145.024 48.3788L150.937 49.8281C151.204 49.8936 151.476 49.7453 151.58 49.4909C152.478 47.2945 153.973 45.9929 156.38 45.9929C158.894 45.9929 160.642 47.639 160.642 50.6018V50.9859C160.642 51.8089 160.369 52.1382 159.385 52.1382H152.555C146.872 52.1382 143.43 55.1559 143.43 59.9293C143.43 65.0323 147.364 68.3245 152.828 68.3245C155.578 68.3245 158.219 67.4208 160.081 65.4086C160.447 65.0131 161.243 65.2543 161.243 65.7931V67.1308Z" fill="#1A285F"/>
<path d="M182.721 62.8373C180.066 62.8373 178.126 61.7354 177.17 59.7101C177.054 59.4644 176.784 59.3215 176.521 59.3881L170.994 60.7873C170.709 60.8591 170.534 61.1471 170.619 61.4278C172.018 66.0748 176.699 68.3245 182.448 68.3245C189.825 68.3245 194.032 64.5385 194.032 59.3809C194.032 49.3948 178.24 52.7966 178.24 47.8584C178.24 46.2124 179.606 45.1699 182.065 45.1699C184.512 45.1699 186.151 46.5073 186.936 48.5583C187.034 48.8127 187.295 48.9723 187.563 48.9216L193.204 47.8538C193.505 47.7967 193.698 47.4975 193.611 47.2033C192.317 42.8344 188.681 39.8477 182.12 39.8477C174.907 39.8477 171.082 43.6885 171.082 48.5169C171.082 58.8322 186.928 55.7596 186.928 60.0393C186.928 61.7402 185.508 62.8373 182.721 62.8373Z" fill="#1A285F"/>
<path d="M207.268 62.8373C204.612 62.8373 202.673 61.7354 201.717 59.7101C201.6 59.4644 201.331 59.3215 201.067 59.3881L195.54 60.7873C195.256 60.8591 195.081 61.1471 195.166 61.4278C196.565 66.0748 201.245 68.3245 206.994 68.3245C214.371 68.3245 218.579 64.5385 218.579 59.3809C218.579 49.3948 202.787 52.7966 202.787 47.8584C202.787 46.2124 204.153 45.1699 206.612 45.1699C209.059 45.1699 210.698 46.5073 211.483 48.5583C211.581 48.8127 211.841 48.9723 212.109 48.9216L217.75 47.8538C218.052 47.7967 218.245 47.4975 218.158 47.2033C216.864 42.8344 213.227 39.8477 206.667 39.8477C199.454 39.8477 195.629 43.6885 195.629 48.5169C195.629 58.8322 211.475 55.7596 211.475 60.0393C211.475 61.7402 210.054 62.8373 207.268 62.8373Z" fill="#1A285F"/>
<path d="M225.488 67.257C225.546 67.4968 225.761 67.6655 226.008 67.6655H234.507C234.755 67.6655 234.971 67.4948 235.028 67.2532L239.357 48.8458L243.686 67.2532C243.743 67.4948 243.959 67.6655 244.208 67.6655H252.981C253.227 67.6655 253.442 67.4975 253.501 67.258L259.904 41.1683C259.987 40.8312 259.732 40.5059 259.384 40.5059H253.345C253.091 40.5059 252.872 40.6841 252.82 40.9325L248.537 61.63L243.231 40.9082C243.17 40.6714 242.956 40.5059 242.712 40.5059H235.955C235.707 40.5059 235.492 40.676 235.434 40.9171L230.505 61.63L226.276 40.9338C226.225 40.6847 226.006 40.5059 225.751 40.5059H219.657C219.31 40.5059 219.054 40.8305 219.137 41.1673L225.488 67.257Z" fill="#1A285F"/>
<path d="M274.34 68.3245C282.536 68.3245 288.165 61.9597 288.165 54.1134C288.165 46.2124 282.536 39.8477 274.34 39.8477C266.198 39.8477 260.516 46.2124 260.516 54.1134C260.516 61.9597 266.198 68.3245 274.34 68.3245ZM274.34 61.7951C270.952 61.7951 268.329 58.9418 268.329 54.1134C268.329 49.285 270.952 46.377 274.34 46.377C277.728 46.377 280.405 49.285 280.405 54.1134C280.405 58.9418 277.728 61.7951 274.34 61.7951Z" fill="#1A285F"/>
<path d="M298.943 53.2904C298.943 48.6266 301.292 47.5292 304.899 47.5292C305.59 47.5292 306.35 47.5978 307.07 47.7351C307.375 47.7932 307.677 47.5985 307.731 47.2928L308.875 40.8313C308.915 40.6044 308.807 40.3742 308.595 40.2839C307.937 40.0041 307.124 39.8477 306.156 39.8477C302.494 39.8477 299.653 41.9875 298.287 46.3221V41.0411C298.287 40.7456 298.047 40.5061 297.752 40.5061H291.828C291.532 40.5061 291.293 40.7456 291.293 41.0411V67.1308C291.293 67.4263 291.532 67.6658 291.828 67.6658H298.407C298.703 67.6658 298.943 67.4263 298.943 67.1308V53.2904Z" fill="#1A285F"/>
<path d="M323.012 61.9595C319.078 61.9595 317.001 58.722 317.001 54.1132C317.001 49.5042 319.078 46.2121 323.012 46.2121C326.946 46.2121 329.023 49.5042 329.023 54.1132C329.023 58.722 326.946 61.9595 323.012 61.9595ZM329.46 67.1305C329.46 67.426 329.7 67.6655 329.995 67.6655H336.137C336.433 67.6655 336.673 67.426 336.673 67.1305V32.6161C336.673 32.3206 336.433 32.0811 336.137 32.0811H329.777C329.481 32.0811 329.241 32.3206 329.241 32.6161V44.2917C327.547 41.1094 324.706 39.8474 321.1 39.8474C314.051 39.8474 309.242 45.9927 309.242 54.1132C309.242 62.2337 314.051 68.3242 321.1 68.3242C324.925 68.3242 327.875 66.7876 329.46 62.8371V67.1305Z" fill="#1A285F"/>
</g>
</svg>
