<svg width="460" height="100" viewBox="0 0 460 100" fill="none" xmlns="http://www.w3.org/2000/svg">
<path d="M154.538 38.2506C147.974 38.2506 143.11 43.5868 143.11 50.686C143.037 52.2911 143.291 53.8942 143.856 55.3985C144.421 56.9027 145.285 58.2768 146.395 59.4377C147.506 60.5986 148.841 61.5222 150.319 62.1526C151.797 62.783 153.387 63.1072 154.994 63.1056C156.895 63.1258 158.776 62.7206 160.5 61.9199C162.224 61.1192 163.748 59.9431 164.959 58.4778L163.573 57.2342C163.301 56.9763 162.941 56.8324 162.566 56.8324C162.191 56.8324 161.83 56.9763 161.558 57.2342C159.809 58.8326 157.522 59.7148 155.152 59.7056C150.901 59.7056 147.124 56.9351 147.124 50.686C147.124 44.4368 150.681 41.6506 154.538 41.6506C155.518 41.6497 156.488 41.8473 157.389 42.2315C158.291 42.6157 159.106 43.1786 159.784 43.8861C160.462 44.5937 160.99 45.4312 161.335 46.3483C161.681 47.2654 161.837 48.243 161.795 49.2221H151.862C151.444 49.2221 151.044 49.3879 150.749 49.6831C150.453 49.9783 150.288 50.3787 150.288 50.7962V52.2601H163.573C163.839 52.2602 164.102 52.2069 164.347 52.1033C164.592 51.9997 164.813 51.848 164.999 51.6571C165.184 51.4662 165.328 51.24 165.424 50.9921C165.52 50.7441 165.565 50.4794 165.557 50.2137C165.289 42.8942 160.661 38.2506 154.538 38.2506Z" fill="#004CFF"/>
<path d="M213.458 38.408C210.404 38.4294 207.395 39.1453 204.659 40.5015L205.43 42.2645C205.484 42.4594 205.578 42.6405 205.708 42.7958C205.837 42.9511 205.998 43.0769 206.18 43.1649C206.362 43.2528 206.56 43.3009 206.762 43.3058C206.964 43.3107 207.165 43.2723 207.351 43.1932C209.195 42.4581 211.159 42.0686 213.144 42.0442C217.551 42.0442 219.944 44.2007 219.944 48.2146V53.8499C219.944 57.3129 216.622 59.9417 212.294 59.9417C209.523 59.9417 206.579 58.5564 206.579 55.4712C206.579 52.386 209.051 50.7489 213.222 50.7489H215.3C215.718 50.7489 216.118 50.5831 216.413 50.2879C216.708 49.9927 216.874 49.5923 216.874 49.1748V47.6952H212.86C206.469 47.6952 202.597 50.56 202.597 55.5657C202.597 60.5713 207.241 63.1213 211.554 63.1213C213.114 63.1712 214.666 62.872 216.095 62.2456C217.525 61.6193 218.797 60.6815 219.818 59.5009V61.075C219.818 61.4925 219.984 61.8929 220.279 62.1881C220.574 62.4833 220.975 62.6491 221.392 62.6491H223.627V48.0887C223.643 41.7923 220.023 38.408 213.458 38.408Z" fill="#004CFF"/>
<path d="M111.502 30.3787H109.188V32.6927C109.188 33.1101 109.354 33.5105 109.649 33.8057C109.944 34.1009 110.344 34.2668 110.762 34.2668H113.076V31.9213C113.068 31.5093 112.898 31.117 112.604 30.8286C112.309 30.5402 111.914 30.3786 111.502 30.3787Z" fill="#004CFF"/>
<path d="M329.139 30.3787H326.825V32.6927C326.825 33.1101 326.991 33.5105 327.286 33.8057C327.581 34.1009 327.982 34.2668 328.399 34.2668H330.713V31.9213C330.705 31.5093 330.535 31.117 330.241 30.8286C329.947 30.5402 329.551 30.3786 329.139 30.3787Z" fill="#004CFF"/>
<path d="M83.7983 56.9353C82.1531 58.5681 79.945 59.5088 77.6277 59.5641C76.4839 59.5378 75.3567 59.2842 74.3118 58.8181C73.2669 58.352 72.3251 57.6827 71.5414 56.8492C70.7576 56.0157 70.1475 55.0345 69.7466 53.9629C69.3457 52.8914 69.1619 51.7507 69.2061 50.6075C69.1576 49.4882 69.3322 48.3705 69.7195 47.3193C70.1069 46.2681 70.6993 45.3044 71.4624 44.4842C72.2255 43.664 73.1441 43.0036 74.1647 42.5415C75.1852 42.0794 76.2875 41.8248 77.4073 41.7925C79.7047 41.8336 81.8933 42.778 83.4993 44.4212C83.6418 44.5538 83.8091 44.6569 83.9915 44.7246C84.1739 44.7924 84.3679 44.8235 84.5624 44.8162C84.7569 44.8089 84.948 44.7633 85.1248 44.682C85.3016 44.6007 85.4607 44.4854 85.5929 44.3425L87.167 42.6425C85.9701 41.2243 84.4746 40.0881 82.7874 39.3153C81.1002 38.5425 79.263 38.1521 77.4073 38.1721C74.1009 38.1721 70.9298 39.4855 68.5917 41.8235C66.2537 44.1615 64.9402 47.3325 64.9402 50.6389C64.9402 53.9454 66.2537 57.1164 68.5917 59.4543C70.9298 61.7923 74.1009 63.1058 77.4073 63.1058C79.2998 63.1005 81.1674 62.6739 82.8745 61.8571C84.5817 61.0403 86.0856 59.8538 87.2772 58.3835L85.8132 56.9983C85.5378 56.7537 85.1853 56.6135 84.8172 56.602C84.449 56.5905 84.0885 56.7084 83.7983 56.9353Z" fill="#004CFF"/>
<path d="M136.433 40.7204L129.475 57.3114L122.533 40.7204C122.29 40.1464 121.882 39.6575 121.361 39.3156C120.84 38.9737 120.229 38.7943 119.605 38.8H117.449L127.082 61.105C127.261 61.587 127.583 62.0027 128.006 62.2962C128.428 62.5898 128.929 62.7471 129.444 62.7471C129.958 62.7471 130.46 62.5898 130.882 62.2962C131.304 62.0027 131.626 61.587 131.805 61.105L141.517 38.8H139.439C138.803 38.7784 138.175 38.9504 137.638 39.2932C137.101 39.6361 136.681 40.1337 136.433 40.7204Z" fill="#004CFF"/>
<path d="M102.012 38.801H96.1409V31.9222C96.1409 31.5047 95.9751 31.1044 95.6799 30.8092C95.3847 30.514 94.9843 30.3481 94.5668 30.3481H92.2843V56.3207C92.2676 57.1978 92.4244 58.0695 92.7457 58.8857C93.0669 59.702 93.5463 60.4468 94.1563 61.0772C94.7662 61.7076 95.4948 62.2113 96.3 62.5593C97.1052 62.9073 97.9713 63.0928 98.8485 63.1051C100.49 63.1527 102.115 62.7788 103.571 62.019V58.4773C102.442 59.0349 101.209 59.3512 99.9503 59.406C99.4447 59.4836 98.9279 59.441 98.4418 59.2818C97.9556 59.1225 97.5138 58.851 97.1521 58.4893C96.7903 58.1276 96.5189 57.6858 96.3596 57.1997C96.2004 56.7135 96.1578 56.1967 96.2354 55.6911V42.264H103.65V40.3436C103.646 40.1342 103.6 39.9276 103.515 39.7361C103.43 39.5446 103.308 39.3719 103.155 39.2282C103.003 39.0846 102.823 38.9728 102.627 38.8994C102.431 38.8261 102.222 38.7926 102.012 38.801Z" fill="#004CFF"/>
<path d="M111.497 38.8007H109.183V61.1057C109.164 61.3172 109.191 61.5305 109.263 61.7302C109.335 61.93 109.451 62.1114 109.601 62.2616C109.751 62.4118 109.933 62.5272 110.132 62.5994C110.332 62.6717 110.545 62.6991 110.757 62.6798H113.071V40.3433C113.063 39.9313 112.893 39.539 112.599 39.2506C112.305 38.9621 111.909 38.8006 111.497 38.8007Z" fill="#004CFF"/>
<path d="M195.858 55.7701C193.395 58.1595 190.097 59.4925 186.665 59.4849C179.881 59.4849 174.639 53.771 174.639 46.5144C174.639 39.2578 179.802 33.7012 186.665 33.7012C189.968 33.7646 193.142 34.9973 195.622 37.18C195.929 37.4159 196.313 37.5303 196.699 37.5013C197.085 37.4722 197.447 37.3018 197.716 37.0226L199.4 35.2438C197.773 33.5533 195.815 32.2156 193.648 31.3139C191.482 30.4121 189.153 29.9656 186.807 30.0021C184.625 29.9732 182.46 30.3871 180.443 31.2189C178.426 32.0506 176.598 33.2829 175.071 34.8412C173.543 36.3994 172.348 38.2513 171.556 40.2847C170.765 42.3182 170.395 44.491 170.467 46.6718C170.393 48.8321 170.756 50.9851 171.535 53.0015C172.314 55.0179 173.492 56.8562 174.999 58.4058C176.506 59.9554 178.311 61.1845 180.305 62.0191C182.299 62.8537 184.441 63.2768 186.602 63.2628C189.046 63.2881 191.466 62.7898 193.701 61.8015C195.935 60.8132 197.932 59.3577 199.557 57.5331L197.983 55.959C197.717 55.6664 197.351 55.4846 196.958 55.4496C196.564 55.4146 196.171 55.529 195.858 55.7701Z" fill="#004CFF"/>
<path d="M256.857 38.2503C255.21 38.2139 253.582 38.6088 252.135 39.3958C250.689 40.1827 249.473 41.3344 248.608 42.7365C247.903 41.3465 246.816 40.1863 245.475 39.3917C244.134 38.5972 242.595 38.2013 241.037 38.2503C239.58 38.2297 238.143 38.5801 236.86 39.2686C235.576 39.9571 234.489 40.9609 233.701 42.1855V40.3438C233.701 39.9264 233.535 39.526 233.24 39.2308C232.945 38.9356 232.544 38.7697 232.127 38.7697H229.813V62.6488H232.127C232.544 62.6488 232.945 62.483 233.24 62.1878C233.535 61.8926 233.701 61.4922 233.701 61.0747V49.0643C233.701 44.893 236.33 41.8865 239.998 41.8865C243.665 41.8865 245.838 44.4365 245.838 48.6708V61.1062C245.838 61.5237 246.004 61.924 246.299 62.2192C246.594 62.5145 246.994 62.6803 247.412 62.6803H249.726V48.9069C249.726 44.043 252.874 41.8865 256.022 41.8865C259.737 41.8865 261.894 44.3578 261.894 48.7495V61.1062C261.894 61.5237 262.06 61.924 262.355 62.2192C262.65 62.5145 263.051 62.6803 263.468 62.6803H265.782V47.8995C265.703 41.9652 262.303 38.2503 256.857 38.2503Z" fill="#004CFF"/>
<path d="M284.767 38.2504C283.023 38.2423 281.305 38.67 279.768 39.4946C278.232 40.3193 276.925 41.5149 275.968 42.9727V40.344C275.968 39.9265 275.802 39.5261 275.507 39.2309C275.212 38.9357 274.811 38.7699 274.394 38.7699H272.08V68.4259C272.08 68.8434 272.246 69.2438 272.541 69.539C272.836 69.8342 273.237 70 273.654 70H275.968V58.5563C276.954 59.9732 278.271 61.1281 279.804 61.9208C281.338 62.7136 283.041 63.1202 284.767 63.1055C290.324 63.1055 296.196 58.7137 296.196 50.6858C296.196 42.6579 290.245 38.2504 284.767 38.2504ZM284.154 59.5637C283.023 59.5378 281.91 59.2858 280.879 58.8227C279.848 58.3596 278.92 57.6948 278.149 56.8674C277.379 56.04 276.782 55.0668 276.394 54.0051C276.006 52.9435 275.834 51.8149 275.889 50.6858C275.832 49.5555 276.002 48.4252 276.389 47.3617C276.777 46.2982 277.373 45.3231 278.143 44.494C278.914 43.6649 279.843 42.9986 280.875 42.5346C281.907 42.0705 283.022 41.8181 284.154 41.7922C288.781 41.7922 292.182 45.57 292.182 50.6701C292.182 55.7702 288.86 59.5637 284.154 59.5637Z" fill="#004CFF"/>
<path d="M329.065 38.8009H326.751V61.1059C326.751 61.5234 326.916 61.9238 327.212 62.219C327.507 62.5142 327.907 62.68 328.325 62.68H330.639V40.3435C330.63 39.9316 330.461 39.5392 330.167 39.2508C329.872 38.9624 329.477 38.8008 329.065 38.8009Z" fill="#004CFF"/>
<path d="M356.233 40.3439V42.5791C355.057 41.0758 353.519 39.8955 351.763 39.149C350.007 38.4024 348.09 38.1139 346.192 38.3106C344.294 38.5073 342.476 39.1828 340.911 40.2736C339.345 41.3644 338.082 42.835 337.24 44.5473C336.397 46.2597 336.004 48.1579 336.096 50.0639C336.188 51.97 336.762 53.8215 337.765 55.4449C338.768 57.0683 340.167 58.4105 341.83 59.3456C343.494 60.2808 345.367 60.7782 347.276 60.7914C349.024 60.809 350.752 60.4047 352.311 59.6128C353.87 58.8209 355.215 57.6647 356.233 56.2423V58.3988C356.233 63.5776 353.226 66.5054 347.905 66.5054C345.125 66.504 342.4 65.7301 340.035 64.2702C339.867 64.154 339.677 64.0753 339.477 64.0393C339.276 64.0034 339.07 64.0111 338.873 64.0619C338.676 64.1127 338.492 64.2054 338.334 64.3337C338.176 64.462 338.047 64.6229 337.957 64.8054L336.949 66.5841C340.195 68.8011 344.038 69.9812 347.968 69.9684C355.697 69.9684 360.089 65.7341 360.089 58.3201V38.8013H357.775C357.369 38.8093 356.981 38.9744 356.693 39.262C356.406 39.5496 356.241 39.9373 356.233 40.3439ZM347.827 57.3127C346.784 57.3454 345.746 57.1643 344.776 56.7803C343.807 56.3964 342.926 55.8179 342.188 55.0804C341.451 54.3429 340.872 53.4621 340.488 52.4924C340.104 51.5227 339.923 50.4846 339.956 49.4422C339.931 48.4091 340.119 47.382 340.508 46.4245C340.897 45.4671 341.478 44.5998 342.216 43.8766C342.954 43.1533 343.833 42.5894 344.798 42.22C345.764 41.8506 346.794 41.6835 347.827 41.7291C348.896 41.6456 349.97 41.7841 350.983 42.1358C351.996 42.4875 352.925 43.0449 353.712 43.773C354.5 44.501 355.128 45.3839 355.557 46.3663C355.987 47.3487 356.208 48.4093 356.208 49.4815C356.208 50.5537 355.987 51.6143 355.557 52.5967C355.128 53.5791 354.5 54.4621 353.712 55.1901C352.925 55.9181 351.996 56.4755 350.983 56.8272C349.97 57.179 348.896 57.3174 347.827 57.234V57.3127Z" fill="#004CFF"/>
<path d="M378.147 38.2505C376.593 38.1968 375.052 38.5453 373.673 39.2624C372.294 39.9795 371.124 41.0407 370.276 42.3432V40.3441C370.276 39.9266 370.11 39.5262 369.815 39.231C369.52 38.9358 369.119 38.77 368.702 38.77H366.388V62.6491H368.702C369.119 62.6491 369.52 62.4832 369.815 62.188C370.11 61.8928 370.276 61.4924 370.276 61.075V48.9544C370.214 48.0316 370.346 47.1061 370.662 46.2369C370.978 45.3677 371.471 44.5738 372.111 43.906C372.751 43.2381 373.523 42.7108 374.378 42.3577C375.232 42.0046 376.151 41.8335 377.076 41.8552C381.011 41.8552 383.373 44.4053 383.373 48.7183V61.075C383.373 61.4924 383.539 61.8928 383.834 62.188C384.129 62.4832 384.529 62.6491 384.947 62.6491H387.261V47.821C387.339 42.0441 383.782 38.2505 378.147 38.2505Z" fill="#004CFF"/>
<path d="M427.461 46.829L403.251 31.0722V34.2204C403.25 34.7361 403.376 35.2441 403.617 35.6997C403.859 36.1554 404.209 36.5447 404.636 36.8334L424.628 50.1818L404.636 63.4672C404.215 63.7515 403.87 64.1333 403.628 64.58C403.387 65.0268 403.258 65.5253 403.251 66.033V69.3543L427.477 53.4559C428.017 53.0843 428.46 52.589 428.769 52.0112C429.079 51.4334 429.245 50.7899 429.255 50.1346C429.259 49.477 429.096 48.8293 428.783 48.2514C428.469 47.6735 428.014 47.1842 427.461 46.829Z" fill="#004CFF"/>
<path d="M412.566 51.2356C413.097 51.5748 413.715 51.755 414.345 51.755C414.975 51.755 415.592 51.5748 416.124 51.2356L417.824 50.0866L405.231 41.5077C405.045 41.3833 404.83 41.3111 404.607 41.2987C404.384 41.2863 404.162 41.3342 403.964 41.4372C403.766 41.5403 403.599 41.6947 403.481 41.8844C403.364 42.0741 403.299 42.2919 403.294 42.5151V45.0652L409.859 49.4569L412.566 51.2356Z" fill="#004CFF"/>
<path d="M310.552 38.408C307.497 38.4272 304.488 39.1432 301.752 40.5015L302.508 42.2645C302.561 42.4594 302.656 42.6405 302.785 42.7958C302.914 42.9511 303.075 43.0769 303.257 43.1649C303.439 43.2528 303.638 43.3009 303.84 43.3058C304.042 43.3107 304.242 43.2723 304.428 43.1932C306.272 42.4581 308.236 42.0686 310.221 42.0442C314.613 42.0442 317.006 44.2007 317.006 48.2146V53.8499C317.006 57.3129 313.7 59.9417 309.371 59.9417C306.585 59.9417 303.657 58.5564 303.657 55.4712C303.657 52.386 306.128 50.7489 310.3 50.7489H312.378C312.795 50.7489 313.195 50.5831 313.491 50.2879C313.786 49.9927 313.952 49.5923 313.952 49.1748V47.6952H309.938C303.531 47.6952 299.674 50.56 299.674 55.5657C299.674 60.5713 304.302 63.1213 308.631 63.1213C310.189 63.171 311.738 62.8717 313.165 62.2453C314.593 61.6189 315.862 60.6812 316.88 59.5009V61.075C316.88 61.4925 317.046 61.8929 317.341 62.1881C317.636 62.4833 318.036 62.6491 318.454 62.6491H320.689V48.0887C320.736 41.7923 317.1 38.408 310.552 38.408Z" fill="#004CFF"/>
<path d="M47.497 30.3798C46.9543 30.297 46.3998 30.4099 45.9327 30.6983C45.4655 30.9866 45.1161 31.4317 44.9469 31.9539L31 62.6488H33.0936C33.7046 62.6354 34.3003 62.4553 34.8163 62.1279C35.3323 61.8006 35.7491 61.3384 36.0215 60.7914L38.9494 54.3848H49.9684C50.3858 54.3848 50.7862 54.219 51.0814 53.9238C51.3766 53.6286 51.5425 53.2282 51.5425 52.8107V50.6857H40.5235L47.497 35.2438L58.7835 60.6812C59.0162 61.2566 59.4139 61.7504 59.9264 62.1005C60.4389 62.4506 61.0435 62.6413 61.6642 62.6488H63.8995L50.0628 32.0011C49.8763 31.484 49.5228 31.0438 49.0581 30.7502C48.5934 30.4565 48.044 30.3262 47.497 30.3798Z" fill="#004CFF"/>
</svg>
