<svg width="300" height="100" viewBox="0 0 300 100" fill="none" xmlns="http://www.w3.org/2000/svg">
<path d="M81.6353 72.1085C84.0162 72.1085 85.9463 70.1783 85.9463 67.7974C85.9463 65.4165 84.0162 63.4863 81.6353 63.4863C79.2543 63.4863 77.3242 65.4165 77.3242 67.7974C77.3242 70.1783 79.2543 72.1085 81.6353 72.1085Z" fill="#3A3A3A"/>
<path fill-rule="evenodd" clip-rule="evenodd" d="M190.05 39.1216C190.05 38.2585 189.707 37.4306 189.097 36.8204C188.486 36.2101 187.659 35.8672 186.795 35.8672H186.795C185.932 35.8672 185.104 36.2101 184.494 36.8204C183.884 37.4306 183.541 38.2585 183.541 39.1216C183.541 47.1027 183.541 67.5769 183.541 75.5582C183.541 76.4213 183.884 77.249 184.494 77.8592C185.104 78.4696 185.932 78.8124 186.795 78.8124H186.795C187.659 78.8124 188.486 78.4696 189.097 77.8592C189.707 77.249 190.05 76.4213 190.05 75.5582C190.05 67.5769 190.05 47.1027 190.05 39.1216Z" fill="#3A3A3A"/>
<path fill-rule="evenodd" clip-rule="evenodd" d="M132.762 74.925C130.455 77.7439 127.151 79.4438 123.1 79.5517C114.453 79.7819 107.969 72.9069 107.969 64.1093C107.969 55.3116 114.357 48.4792 123.004 48.6716C126.933 48.7589 130.34 50.2094 132.762 53.4314V39.2025C132.762 38.3395 133.105 37.5117 133.715 36.9015C134.325 36.2911 135.153 35.9482 136.016 35.9482C136.879 35.9482 137.707 36.2911 138.317 36.9015C138.928 37.5117 139.271 38.3395 139.271 39.2025V75.5739C139.271 76.437 138.928 77.2648 138.317 77.8751C137.707 78.4854 136.879 78.8282 136.016 78.8282C135.153 78.8282 134.325 78.4854 133.715 77.8751C133.105 77.2648 132.762 76.437 132.762 75.5739V74.925ZM132.762 62.0099C131.821 57.7692 128.092 54.5982 123.64 54.5982C118.479 54.5982 114.29 58.86 114.29 64.1093C114.29 69.3586 118.479 73.6204 123.64 73.6204C128.092 73.6204 131.821 70.4493 132.762 66.2087V62.0099Z" fill="#3A3A3A"/>
<path fill-rule="evenodd" clip-rule="evenodd" d="M169.789 74.9152C167.482 77.7397 164.176 79.443 160.119 79.551C151.473 79.7813 144.988 72.9063 144.988 64.1087C144.988 55.311 151.377 48.4786 160.023 48.671C163.957 48.7584 167.366 50.2117 169.789 53.4407V52.3168C169.789 51.4537 170.132 50.6259 170.742 50.0157C171.352 49.4053 172.181 49.0625 173.043 49.0625C173.906 49.0625 174.734 49.4053 175.345 50.0157C175.955 50.6259 176.298 51.4537 176.298 52.3168V75.7535C176.298 76.6166 175.955 77.4443 175.345 78.0546C174.734 78.6649 173.906 79.0078 173.043 79.0078C172.181 79.0078 171.352 78.6649 170.742 78.0546C170.132 77.4443 169.789 76.6166 169.789 75.7535V74.9152ZM169.789 61.4827C168.648 57.5088 164.984 54.5976 160.645 54.5976C155.396 54.5976 151.135 58.8593 151.135 64.1087C151.135 69.358 155.396 73.6198 160.645 73.6198C164.984 73.6198 168.648 70.7085 169.789 66.7346V61.4827Z" fill="#3A3A3A"/>
<path fill-rule="evenodd" clip-rule="evenodd" d="M211.128 48.5361C219.731 48.5361 226.716 55.5206 226.716 64.1234C226.716 72.7264 219.731 79.7108 211.128 79.7108C202.525 79.7108 195.541 72.7264 195.541 64.1234C195.541 55.5206 202.525 48.5361 211.128 48.5361ZM211.128 55.039C206.114 55.039 202.044 59.1096 202.044 64.1234C202.044 69.1373 206.114 73.2079 211.128 73.2079C216.143 73.2079 220.213 69.1373 220.213 64.1234C220.213 59.1096 216.143 55.039 211.128 55.039Z" fill="#3A3A3A"/>
<path fill-rule="evenodd" clip-rule="evenodd" d="M78.7732 42.6342C79.2239 41.8981 79.9486 41.3713 80.7878 41.1696C81.627 40.9678 82.512 41.1076 83.248 41.5583L83.2481 41.5583C83.9842 42.0091 84.511 42.7339 84.7127 43.573C84.9145 44.4122 84.7747 45.2971 84.324 46.0332C80.1486 52.8519 69.4242 70.3655 65.2488 77.1841C64.7981 77.9202 64.0734 78.447 63.2342 78.6488C62.3951 78.8506 61.5102 78.7107 60.7741 78.2599L60.774 78.2599C60.0379 77.8092 59.5111 77.0845 59.3093 76.2453C59.1075 75.4062 59.2473 74.5212 59.698 73.7851C63.8734 66.9665 74.5978 49.4529 78.7732 42.6342Z" fill="#C4C4C4"/>
<path fill-rule="evenodd" clip-rule="evenodd" d="M84.1507 42.6342C83.6999 41.8981 82.9752 41.3713 82.1361 41.1696C81.2969 40.9678 80.4119 41.1076 79.6758 41.5583L79.6757 41.5583C78.9396 42.0091 78.4128 42.7339 78.2111 43.573C78.0093 44.4122 78.1492 45.2971 78.5999 46.0332C82.7753 52.8519 93.4996 70.3655 97.675 77.1841C98.1257 77.9202 98.8504 78.447 99.6896 78.6488C100.529 78.8506 101.414 78.7107 102.15 78.2599L102.15 78.2599C102.886 77.8092 103.413 77.0845 103.615 76.2453C103.816 75.4062 103.677 74.5212 103.226 73.7851C99.0504 66.9665 88.326 49.4529 84.1507 42.6342Z" fill="#3A3A3A"/>
<path fill-rule="evenodd" clip-rule="evenodd" d="M211.895 32.4429C211.896 32.3795 211.937 32.3241 211.998 32.3059C212.058 32.2877 212.124 32.3107 212.159 32.3633C212.695 33.1547 213.875 34.896 213.875 34.896C213.875 34.896 215.978 34.9177 216.934 34.9277C216.996 34.9285 217.052 34.97 217.07 35.0306C217.089 35.0911 217.065 35.1567 217.013 35.192C216.222 35.728 214.48 36.9071 214.48 36.9071C214.48 36.9071 214.458 39.01 214.448 39.9659C214.448 40.0291 214.406 40.0847 214.345 40.1029C214.285 40.1211 214.219 40.0979 214.184 40.0455C213.648 39.2539 212.469 37.5125 212.469 37.5125C212.469 37.5125 210.366 37.4909 209.41 37.4809C209.347 37.4804 209.292 37.4385 209.273 37.378C209.255 37.3174 209.278 37.2521 209.331 37.2166C210.122 36.6806 211.864 35.5014 211.864 35.5014C211.864 35.5014 211.886 33.3986 211.895 32.4429Z" fill="#FFC300"/>
<path fill-rule="evenodd" clip-rule="evenodd" d="M236.396 48.3847C236.396 48.3086 236.446 48.2417 236.52 48.2197C236.593 48.1977 236.671 48.2258 236.714 48.2888C237.319 49.1816 238.588 51.0561 238.588 51.0561C238.588 51.0561 240.852 51.0796 241.93 51.0906C242.007 51.0914 242.074 51.1417 242.096 51.2147C242.118 51.2877 242.09 51.3666 242.026 51.4094C241.133 52.014 239.259 53.2832 239.259 53.2832C239.259 53.2832 239.235 55.5469 239.224 56.625C239.223 56.7014 239.173 56.7682 239.1 56.7903C239.027 56.8123 238.948 56.7843 238.906 56.7209C238.301 55.8281 237.032 53.9536 237.032 53.9536C237.032 53.9536 234.768 53.9304 233.69 53.9192C233.614 53.9183 233.546 53.8681 233.525 53.7951C233.503 53.7221 233.531 53.6432 233.594 53.6004C234.486 52.996 236.361 51.7265 236.361 51.7265C236.361 51.7265 236.385 49.4628 236.396 48.3847Z" fill="#F94929"/>
<path fill-rule="evenodd" clip-rule="evenodd" d="M224.287 30.8707C224.225 30.7515 224.247 30.6058 224.341 30.5113C224.437 30.4156 224.583 30.3936 224.702 30.4561C226.424 31.3584 230.096 33.2819 230.096 33.2819C230.096 33.2819 233.768 31.3577 235.489 30.4564C235.608 30.3938 235.755 30.4154 235.85 30.5106C235.945 30.6056 235.966 30.7523 235.904 30.8716C235.002 32.5926 233.078 36.2647 233.078 36.2647C233.078 36.2647 235.002 39.9364 235.904 41.6584C235.967 41.7776 235.945 41.9232 235.849 42.0189C235.754 42.1134 235.609 42.1355 235.49 42.073C233.768 41.1707 230.096 39.2471 230.096 39.2471C230.096 39.2471 226.424 41.1713 224.702 42.0737C224.582 42.1363 224.437 42.1136 224.342 42.0185C224.247 41.9233 224.224 41.7778 224.286 41.6585C225.189 39.9364 227.113 36.2643 227.113 36.2643C227.113 36.2643 225.19 32.5927 224.287 30.8707Z" fill="#00B3A2"/>
</svg>
