<svg width="300" height="100" viewBox="0 0 300 100" fill="none" xmlns="http://www.w3.org/2000/svg">
<path fill-rule="evenodd" clip-rule="evenodd" d="M128.311 63.5971C126.376 63.5971 125.259 61.8201 125.136 60.4238L125.136 60.4205C123.302 62.8498 119.598 64.1691 116.2 64.1691C108.476 64.1691 102.215 57.902 102.215 50.1713C102.215 42.441 108.476 36.1748 116.2 36.1748C119.598 36.1748 122.987 37.2744 125.136 39.9237V37.9006H125.141C125.164 37.4812 125.511 37.1452 125.935 37.1452H129.443C129.867 37.1452 130.214 37.4812 130.237 37.9006H130.241V62.7983C130.241 63.2374 129.882 63.5971 129.443 63.5971H128.311ZM107.319 50.1713C107.319 55.1966 111.302 59.2697 116.214 59.2697C121.126 59.2697 125.108 55.1966 125.108 50.1713C125.108 45.1469 121.126 41.0735 116.214 41.0735C111.302 41.0735 107.319 45.1469 107.319 50.1713Z" fill="#0D0E10"/>
<path d="M138.622 56.8583C140.964 58.4818 143.52 59.2703 145.977 59.2703C148.317 59.2703 150.736 58.0563 150.736 55.943C150.736 53.8032 147.704 53.0338 144.794 52.2954C143.867 52.0602 142.952 51.8282 142.152 51.556C138.839 50.4295 135.986 48.1006 135.986 44.3292C135.986 38.5583 141.124 36.1748 145.92 36.1748C148.958 36.1748 152.094 37.1775 154.126 38.6139C154.826 39.1447 154.4 39.7541 154.4 39.7541L152.46 42.5273C152.242 42.8396 151.86 43.1095 151.313 42.7714C151.275 42.748 151.23 42.7197 151.18 42.6873C150.495 42.2517 148.643 41.0737 145.92 41.0737C142.994 41.0737 141.231 42.4259 141.231 44.102C141.231 46.1119 143.522 46.7441 146.205 47.4291C150.881 48.6904 155.982 50.2065 155.982 55.943C155.982 61.0277 151.229 64.1699 145.977 64.1699C141.996 64.1699 138.608 63.0343 135.765 60.9471C135.173 60.3541 135.587 59.8036 135.587 59.8036L137.518 57.0444C137.91 56.5285 138.406 56.7084 138.622 56.8583Z" fill="#0D0E10"/>
<path fill-rule="evenodd" clip-rule="evenodd" d="M246.179 60.4238C246.302 61.8201 247.419 63.5971 249.354 63.5971H250.486C250.925 63.5971 251.284 63.2374 251.284 62.7983V37.9006H251.279C251.256 37.4812 250.91 37.1452 250.486 37.1452H246.978C246.554 37.1452 246.207 37.4812 246.184 37.9006H246.179V39.9237C244.03 37.2744 240.641 36.1748 237.243 36.1748C229.519 36.1748 223.258 42.441 223.258 50.1713C223.258 57.902 229.519 64.1683 237.243 64.1683C240.641 64.1683 244.345 62.8498 246.179 60.4205L246.179 60.4238ZM237.257 59.2697C232.344 59.2697 228.362 55.1966 228.362 50.1713C228.362 45.1469 232.344 41.0735 237.257 41.0735C242.169 41.0735 246.151 45.1469 246.151 50.1713C246.151 55.1966 242.169 59.2697 237.257 59.2697Z" fill="#0D0E10"/>
<path d="M218.823 48.3972C218.823 41.1348 214.245 36.2355 206.945 36.2355C203.46 36.2355 200.603 38.2522 199.594 39.9846C199.376 38.63 198.657 37.2062 196.428 37.2062H195.293C194.853 37.2062 194.494 37.5661 194.494 38.0053V62.905H194.499C194.522 63.3239 194.869 63.6603 195.293 63.6603H198.801C198.855 63.6603 198.907 63.6538 198.958 63.6439C198.973 63.641 198.987 63.6363 199.002 63.6315C199.01 63.6288 199.018 63.6262 199.026 63.6238C199.033 63.6215 199.041 63.6193 199.049 63.6171C199.068 63.6119 199.086 63.6067 199.104 63.5995C199.128 63.5894 199.151 63.5766 199.173 63.5638L199.192 63.553C199.199 63.5491 199.205 63.5458 199.211 63.5425C199.216 63.5401 199.221 63.5376 199.225 63.535C199.229 63.533 199.232 63.531 199.235 63.5288C199.27 63.5064 199.302 63.4792 199.333 63.4515C199.338 63.4462 199.344 63.443 199.35 63.4383C199.384 63.4045 199.416 63.3672 199.445 63.3285C199.532 63.2078 199.586 63.062 199.595 62.905H199.599V48.1974C199.599 44.297 202.759 41.1348 206.657 41.1348C210.554 41.1348 213.714 44.297 213.714 48.1974L213.718 60.491L213.718 60.4867C213.718 60.4921 213.719 60.4975 213.719 60.503C213.72 60.5087 213.72 60.5146 213.72 60.5205V62.905H213.725C213.748 63.3239 214.094 63.6603 214.519 63.6603H218.027C218.081 63.6603 218.133 63.6538 218.184 63.6439C218.205 63.64 218.224 63.6317 218.244 63.6261L218.264 63.6206C218.286 63.6143 218.308 63.608 218.33 63.5995L218.339 63.5958C218.347 63.5918 218.356 63.5874 218.364 63.5827C218.374 63.5778 218.383 63.5725 218.392 63.5673L218.412 63.5558L218.42 63.5514L218.431 63.5458C218.442 63.5406 218.452 63.5355 218.462 63.5288C218.494 63.5078 218.524 63.4821 218.553 63.4565L218.557 63.4529L218.569 63.4434C218.571 63.4415 218.574 63.4396 218.576 63.4375C218.609 63.4055 218.639 63.3709 218.666 63.3346L218.668 63.3318L218.669 63.3297L218.672 63.3269C218.758 63.2072 218.811 63.063 218.82 62.9073L218.82 62.9061L218.821 62.905H218.825L218.823 48.3972Z" fill="#0D0E10"/>
<path fill-rule="evenodd" clip-rule="evenodd" d="M185.463 63.5981C183.529 63.5981 182.412 61.821 182.289 60.4247L182.289 60.4215C180.454 62.8508 176.751 64.1701 173.353 64.1701C165.629 64.1701 159.367 57.9029 159.367 50.1723C159.367 42.442 165.629 36.1758 173.353 36.1758C176.751 36.1758 180.139 37.2754 182.289 39.9247V37.9016H182.293C182.317 37.4822 182.663 37.1462 183.087 37.1462H186.595C187.019 37.1462 187.366 37.4822 187.389 37.9016H187.393V62.7993C187.393 63.2384 187.034 63.5981 186.595 63.5981H185.463ZM164.472 50.1723C164.472 55.1976 168.454 59.2707 173.366 59.2707C178.279 59.2707 182.261 55.1976 182.261 50.1723C182.261 45.1478 178.279 41.0745 173.366 41.0745C168.454 41.0745 164.472 45.1478 164.472 50.1723Z" fill="#0D0E10"/>
<path fill-rule="evenodd" clip-rule="evenodd" d="M82.6067 51.1245C77.4087 51.1245 73.195 55.3383 73.195 60.5365C73.195 65.7344 77.4087 69.9482 82.6067 69.9482C87.8048 69.9482 92.0185 65.7344 92.0185 60.5365C92.0185 55.3383 87.8048 51.1245 82.6067 51.1245ZM58.154 51.1253C52.956 51.1253 48.7422 55.3383 48.7422 60.5365C48.7422 65.7344 52.956 69.9482 58.154 69.9482C63.3522 69.9482 67.5662 65.7344 67.5662 60.5365C67.5662 55.3383 63.3522 51.1253 58.154 51.1253ZM79.792 39.3597C79.792 44.558 75.5783 48.7722 70.3804 48.7722C65.1822 48.7722 60.9685 44.558 60.9685 39.3597C60.9685 34.1624 65.1822 29.9482 70.3804 29.9482C75.5783 29.9482 79.792 34.1624 79.792 39.3597Z" fill="#F06A6A"/>
</svg>
